<svg width="286" height="162" viewBox="0 0 286 162" fill="none" xmlns="http://www.w3.org/2000/svg">
<path d="M286 57.1765H0V104.824H286V57.1765Z" fill="#0A9396"/>
<path d="M143 162C221.977 162 286 136.401 286 104.823C286 73.2457 221.977 47.647 143 47.647C64.0233 47.647 0 73.2457 0 104.823C0 136.401 64.0233 162 143 162Z" fill="#0A9396"/>
<path d="M143 114.353C221.977 114.353 286 88.7542 286 57.1765C286 25.5988 221.977 0 143 0C64.0233 0 0 25.5988 0 57.1765C0 88.7542 64.0233 114.353 143 114.353Z" fill="#94D2BD"/>
<ellipse cx="74.5" cy="46.5" rx="12.5" ry="7.5" fill="#0A9396"/>
<ellipse cx="211.5" cy="46.5" rx="12.5" ry="7.5" fill="#0A9396"/>
<path d="M107 76C117.819 89.3334 166.689 91.9421 179 76" stroke="#0A9396" stroke-width="10" stroke-linecap="round"/>
</svg>
